<?xml version="1.0" encoding="utf-8"?>
<svg xmlns="http://www.w3.org/2000/svg" xmlns:xlink="http://www.w3.org/1999/xlink" style="margin: auto; background: none; display: block; shape-rendering: auto;" width="200px" height="200px" viewBox="0 0 100 100" preserveAspectRatio="xMidYMid">
<g transform="translate(50 50)">
<g>
<animateTransform attributeName="transform" type="rotate" values="0;18.94736842105263" keyTimes="0;1" dur="0.2645502645502646s" repeatCount="indefinite"></animateTransform><path d="M22.332711434127294 -5.5 L32.33271143412729 -5.5 L32.33271143412729 5.5 L22.332711434127294 5.5 A23 23 0 0 1 22.908510608948262 2.049424719209007 L22.908510608948262 2.049424719209007 L32.36668302595461 5.296419411255842 L28.794988864703093 15.700409069962824 L19.336816447696744 12.453414377915989 A23 23 0 0 1 21.00181719712305 9.376762469990721 L21.00181719712305 9.376762469990721 L28.893222291086985 15.5188895968874 L22.13688245150064 24.19943520024773 L14.245477357536704 18.057308073351052 A23 23 0 0 1 16.819251015219496 15.6879825116883 L16.819251015219496 15.6879825116883 L22.288732596443765 24.059647294313585 L13.079901335555952 30.076077033660283 L7.610419754331681 21.704412251035 A23 23 0 0 1 10.814058008247954 20.299166224114927 L10.814058008247954 20.299166224114927 L13.268912879655947 29.993168883508233 L2.6055099543233107 32.693509242057026 L0.15065508291531826 22.99950658266372 A23 23 0 0 1 3.6369940186839815 22.710620302141837 L3.6369940186839815 22.710620302141837 L2.8112005639606585 32.676465232208535 L-8.151228859112711 31.768092432012878 L-7.325435404389388 21.80224750194618 A23 23 0 0 1 -3.934194706581168 22.661026278849523 L-3.934194706581168 22.661026278849523 L-7.9511489531108595 31.8187595454001 L-18.024655546316495 27.40010987421744 L-14.007701299786802 18.242376607666863 A23 23 0 0 1 -11.079052390067663 20.155758436192272 L-11.079052390067663 20.155758436192272 L-17.85186810632507 27.51299754292359 L-25.94483112372952 20.062900255040443 L-19.172015407472113 12.705661148309124 A23 23 0 0 1 -17.023322837880077 15.466301418157823 L-17.023322837880077 15.466301418157823 L-25.818060349944965 20.225775348528558 L-31.053481673352778 10.55156408525718 L-22.258744161287886 5.792090154886443 A23 23 0 0 1 -21.12285211213864 9.10083065707302 L-21.12285211213864 9.10083065707302 L-30.986465146165862 10.74677655988036 L-32.79700563925394 -0.10319777754958714 L-22.933392605226715 -1.7491436803569274 A23 23 0 0 1 -22.933392605226715 1.7491436803569327 L-22.933392605226715 1.7491436803569327 L-32.79700563925394 0.1031977775495947 L-30.98646514616587 -10.746776559880352 L-21.122852112138645 -9.100830657073015 A23 23 0 0 1 -22.258744161287886 -5.792090154886437 L-22.258744161287886 -5.792090154886437 L-31.053481673352778 -10.551564085257171 L-25.818060349944965 -20.225775348528554 L-17.023322837880077 -15.466301418157821 A23 23 0 0 1 -19.17201540747212 -12.705661148309108 L-19.17201540747212 -12.705661148309108 L-25.944831123729536 -20.06290025504042 L-17.851868106325092 -27.51299754292358 L-11.079052390067677 -20.155758436192265 A23 23 0 0 1 -14.007701299786815 -18.242376607666852 L-14.007701299786815 -18.242376607666852 L-18.024655546316513 -27.400109874217424 L-7.9511489531108825 -31.81875954540009 L-3.934194706581184 -22.66102627884952 A23 23 0 0 1 -7.325435404389398 -21.802247501946177 L-7.325435404389398 -21.802247501946177 L-8.151228859112726 -31.768092432012875 L2.8112005639606434 -32.676465232208535 L3.636994018683971 -22.710620302141837 A23 23 0 0 1 0.15065508291530752 -22.99950658266372 L0.15065508291530752 -22.99950658266372 L2.6055099543232947 -32.693509242057026 L13.26891287965593 -29.99316888350824 L10.814058008247944 -20.299166224114934 A23 23 0 0 1 7.610419754331671 -21.704412251035002 L7.610419754331671 -21.704412251035002 L13.079901335555938 -30.07607703366029 L22.288732596443754 -24.0596472943136 L16.81925101521949 -15.68798251168831 A23 23 0 0 1 14.245477357536698 -18.057308073351056 L14.245477357536698 -18.057308073351056 L22.136882451500632 -24.199435200247734 L28.89322229108698 -15.518889596887409 L21.001817197123046 -9.376762469990728 A23 23 0 0 1 19.336816447696737 -12.453414377915996 L19.336816447696737 -12.453414377915996 L28.794988864703086 -15.700409069962834 L32.36668302595461 -5.296419411255851 L22.908510608948262 -2.0494247192090134 A23 23 0 0 1 22.332711434127294 -5.500000000000006 M0 -35A35 35 0 1 0 0 35 A35 35 0 1 0 0 -35" fill="#151515"></path></g></g>
<!-- [ldio] generated by https://loading.io/ --></svg>